<svg xmlns="http://www.w3.org/2000/svg" viewBox="0 0 808.52 805.15"><defs><style>.cls-1,.cls-3,.cls-5,.cls-8{fill:#fff;}.cls-1,.cls-11,.cls-12,.cls-13,.cls-14,.cls-2,.cls-3,.cls-5{stroke:#000;stroke-miterlimit:10;}.cls-1,.cls-11{stroke-width:2.73px;}.cls-17,.cls-2{fill:#f2f2f2;}.cls-13,.cls-14,.cls-2,.cls-5{stroke-width:2px;}.cls-12,.cls-3{stroke-width:1.7px;}.cls-13,.cls-4{fill:#525354;}.cls-6{fill:#dadbdb;}.cls-7{fill:#8e9093;}.cls-9{fill:#555456;}.cls-10{fill:#221f1f;}.cls-11,.cls-15{fill:#999;opacity:0.77;}.cls-12{fill:#b3b3b3;}.cls-16{fill:#ccc;}</style></defs><title>Asset 5</title><g id="Layer_2" data-name="Layer 2"><g id="Layer_1-2" data-name="Layer 1"><rect class="cls-1" x="1.36" y="1.36" width="375.79" height="375.79" rx="55" ry="55"/><path class="cls-2" d="M216.49,103.08a21.78,21.78,0,1,0-37,15.59l0,0,14.58,14.18a.83.83,0,0,0,1.15,0l14.67-14.24,0,0A21.75,21.75,0,0,0,216.49,103.08Z"/><circle class="cls-3" cx="194.71" cy="103.08" r="7.11"/><path class="cls-4" d="M308.73,274.2c-24.07-9.53-65.35-15.81-112.23-15.81s-88.15,6.28-112.23,15.81H62v19.41h0c0,19.45,60.21,35.22,134.49,35.22S331,313.06,331,293.61V274.2Z"/><ellipse class="cls-5" cx="196.5" cy="271.76" rx="134.49" ry="35.22"/><polygon class="cls-6" points="196.5 262.12 105.04 271.76 196.5 276.39 196.5 262.12 196.5 262.12"/><polygon class="cls-7" points="196.5 276.39 287.96 267.42 196.5 262.12 196.5 277.07 196.5 276.39"/><ellipse class="cls-8" cx="196.66" cy="269.21" rx="23.06" ry="7.18"/><ellipse class="cls-9" cx="196.5" cy="269.21" rx="18.34" ry="5.48"/><path class="cls-10" d="M218.73,140.68c11.52,7,11.67,54,6.18,54.08-10.59.07-3.11-29.82-9.59-34.2-5.46-3.7,4.33,90.34-7.48,90.34-11.34,0-3.26-56.72-12.25-56.76-10.15,0-1,56.65-10.9,56.65s-8.3-65.23-8.3-65.23c-2.07-44.88-14.56-31.5-24.8-52.43-6.09-16.28,11.26-32.25,20.95-29.85,1.31.32,4.15,10,0,11-8.52,2.13-16.33,11-5.89,19.6C186.72,146.74,207.26,133.76,218.73,140.68Z"/><rect class="cls-11" x="431.36" y="3.36" width="375.79" height="375.79" rx="55" ry="55"/><path class="cls-2" d="M646.49,105.08a21.78,21.78,0,1,0-37,15.59l0,0,14.58,14.18a.83.83,0,0,0,1.15,0l14.67-14.24,0,0A21.75,21.75,0,0,0,646.49,105.08Z"/><circle class="cls-12" cx="624.71" cy="105.08" r="7.11"/><path class="cls-13" d="M738.73,276.2c-24.07-9.53-65.35-15.81-112.23-15.81s-88.15,6.28-112.23,15.81H492v19.41h0c0,19.45,60.21,35.22,134.49,35.22S761,315.06,761,295.61V276.2Z"/><ellipse class="cls-5" cx="626.5" cy="273.76" rx="134.49" ry="35.22"/><polygon class="cls-6" points="626.5 264.12 535.04 273.76 626.5 278.39 626.5 264.12 626.5 264.12"/><polygon class="cls-7" points="626.5 278.39 717.96 269.42 626.5 264.12 626.5 279.07 626.5 278.39"/><ellipse class="cls-8" cx="626.66" cy="271.21" rx="23.06" ry="7.18"/><ellipse class="cls-9" cx="626.5" cy="271.21" rx="18.34" ry="5.48"/><path class="cls-14" d="M648.73,142.68c11.52,7,11.67,54,6.18,54.08-10.59.07-3.11-29.82-9.59-34.2-5.46-3.7,4.33,90.34-7.48,90.34-11.34,0-3.26-56.72-12.25-56.76-10.15,0-1,56.65-10.9,56.65s-8.3-65.23-8.3-65.23c-2.07-44.88-14.56-31.5-24.8-52.43-6.09-16.28,11.26-32.25,20.95-29.85,1.31.32,4.15,10,0,11-8.52,2.13-16.33,11-5.89,19.6C616.72,148.74,637.26,135.76,648.73,142.68Z"/><rect class="cls-15" x="0.36" y="429.36" width="375.79" height="375.79" rx="55" ry="55"/><path d="M215.49,531.08a21.78,21.78,0,1,0-37,15.59l0,0,14.58,14.18a.83.83,0,0,0,1.15,0l14.67-14.24,0,0A21.75,21.75,0,0,0,215.49,531.08Z"/><circle class="cls-16" cx="193.71" cy="531.08" r="7.11"/><path class="cls-4" d="M307.73,702.2c-24.07-9.53-65.35-15.81-112.23-15.81s-88.15,6.28-112.23,15.81H61v19.41h0c0,19.45,60.21,35.22,134.49,35.22S330,741.06,330,721.61V702.2Z"/><ellipse class="cls-8" cx="195.5" cy="699.76" rx="134.49" ry="35.22"/><polygon class="cls-6" points="195.5 690.12 104.04 699.76 195.5 704.39 195.5 690.12 195.5 690.12"/><polygon class="cls-7" points="195.5 704.39 286.96 695.42 195.5 690.12 195.5 705.07 195.5 704.39"/><ellipse class="cls-8" cx="195.66" cy="697.21" rx="23.06" ry="7.18"/><ellipse class="cls-9" cx="195.5" cy="697.21" rx="18.34" ry="5.48"/><path d="M217.73,568.68c11.52,7,11.67,54.05,6.18,54.08-10.59.07-3.11-29.82-9.59-34.2-5.46-3.7,4.33,90.34-7.48,90.34-11.34,0-3.26-56.72-12.25-56.76-10.15,0-1,56.65-10.9,56.65s-8.3-65.23-8.3-65.23c-2.07-44.88-14.56-31.5-24.8-52.43-6.09-16.28,11.26-32.25,20.95-29.85,1.31.32,4.15,10,0,11-8.52,2.13-16.33,11-5.89,19.6C185.72,574.74,206.26,561.76,217.73,568.68Z"/><rect class="cls-17" x="432.36" y="429.36" width="375.79" height="375.79" rx="55" ry="55"/><path d="M647.49,531.08a21.78,21.78,0,1,0-37,15.59l0,0,14.58,14.18a.83.83,0,0,0,1.15,0l14.67-14.24,0,0A21.75,21.75,0,0,0,647.49,531.08Z"/><circle class="cls-17" cx="625.71" cy="531.08" r="7.11"/><path class="cls-4" d="M739.73,702.2c-24.07-9.53-65.35-15.81-112.23-15.81s-88.15,6.28-112.23,15.81H493v19.41h0c0,19.45,60.21,35.22,134.49,35.22S762,741.06,762,721.61V702.2Z"/><ellipse class="cls-17" cx="627.5" cy="699.76" rx="134.49" ry="35.22"/><polygon class="cls-6" points="627.5 690.12 536.04 699.76 627.5 704.39 627.5 690.12 627.5 690.12"/><polygon class="cls-7" points="627.5 704.39 718.96 695.42 627.5 690.12 627.5 705.07 627.5 704.39"/><ellipse class="cls-8" cx="627.66" cy="697.21" rx="23.06" ry="7.18"/><ellipse class="cls-9" cx="627.5" cy="697.21" rx="18.34" ry="5.48"/><path d="M649.73,568.68c11.52,7,11.67,54.05,6.18,54.08-10.59.07-3.11-29.82-9.59-34.2-5.46-3.7,4.33,90.34-7.48,90.34-11.34,0-3.26-56.72-12.25-56.76-10.15,0-1,56.65-10.9,56.65s-8.3-65.23-8.3-65.23c-2.07-44.88-14.56-31.5-24.8-52.43-6.09-16.28,11.26-32.25,20.95-29.85,1.31.32,4.15,10,0,11-8.52,2.13-16.33,11-5.89,19.6C617.72,574.74,638.26,561.76,649.73,568.68Z"/></g></g></svg>