<svg xmlns="http://www.w3.org/2000/svg" viewBox="0 0 513 520"><defs><style>.cls-1{fill:#292728;}.cls-2,.cls-4{fill:#fff;}.cls-2{stroke:#000;stroke-miterlimit:10;stroke-width:2.59px;}.cls-3{fill:#515254;}.cls-5{fill:#dadbdc;}.cls-6{fill:#8f9194;}.cls-7{fill:#545456;}.cls-8{fill:#231f20;}</style></defs><title>icon_cover</title><g id="Pin"><g id="Pin-2" data-name="Pin"><path class="cls-1" d="M295.41,113.14a33.14,33.14,0,1,0-56.26,23.73l0,.06,22.17,21.57a1.27,1.27,0,0,0,1.76,0l22.32-21.67,0-.05A33,33,0,0,0,295.41,113.14Z"/><circle class="cls-2" cx="262.27" cy="113.14" r="10.81"/></g></g><g id="Compass"><path class="cls-3" d="M435.75,381.15c-36.63-14.5-99.42-24.06-170.75-24.06s-134.12,9.56-170.75,24.06H60.38v29.53h0c0,29.59,91.61,53.59,204.62,53.59s204.62-24,204.62-53.59V381.15Z"/><ellipse class="cls-4" cx="265" cy="377.44" rx="204.62" ry="53.59"/><polyline class="cls-5" points="265 362.76 125.85 377.44 265 384.48 265 362.76"/><polyline class="cls-6" points="265 384.48 404.15 370.83 265 362.76 265 385.51"/><ellipse class="cls-4" cx="265.24" cy="373.55" rx="35.08" ry="10.92"/><ellipse class="cls-7" cx="265" cy="373.55" rx="27.9" ry="8.33"/></g><g id="Figure"><path class="cls-8" d="M298.82,170.35c17.53,10.58,17.76,82.22,9.41,82.28-16.12.1-4.74-45.37-14.6-52C285.33,195,300.22,338,282.25,338c-17.25,0-5-86.3-18.64-86.35-15.44-.07-1.48,86.18-16.57,86.18s-12.64-99.24-12.64-99.24c-3.15-68.28-22.14-47.92-37.73-79.78-9.26-24.76,19.82-46.18,34.84-46.24s20,14.1-3,17.56c-13.2,2-24.85,16.75-8.95,29.81C250.12,179.56,281.37,159.82,298.82,170.35Z"/></g></svg>